<svg viewBox="0 0 33 19" fill="none" xmlns="http://www.w3.org/2000/svg">
<g clip-path="url(#clip0)">
<path d="M17.758 8.56738H19.1889L20.5144 12.6161C20.5144 12.6161 20.7252 13.1771 20.2433 13.4349C19.7763 13.6927 18.8425 14.2234 18.8425 14.2234C18.8425 14.2234 17.8032 13.8443 18.0894 13.0861C18.3756 12.328 19.1739 11.2058 18.7823 10.4173C18.3906 9.644 16.9748 9.28007 17.0351 8.96164C17.1104 8.65836 17.758 8.56738 17.758 8.56738Z" fill="#191212"/>
<path d="M5.43736 8.05176C2.44003 8.05176 0 10.4931 0 13.5258C0 16.5585 2.44003 18.9999 5.43736 18.9999C8.44975 18.9999 10.8747 16.5434 10.8747 13.5258C10.8898 10.4931 8.44975 8.05176 5.43736 8.05176ZM5.43736 17.2409C3.404 17.2409 1.74719 15.5729 1.74719 13.5258C1.74719 11.4787 3.404 9.81073 5.43736 9.81073C7.47072 9.81073 9.12754 11.4787 9.12754 13.5258C9.12754 15.5729 7.48579 17.2409 5.43736 17.2409Z" fill="#1E1A19"/>
<path d="M5.43736 18.3328C2.54547 18.3328 0.180743 16.0583 0 13.1924C0 13.2985 0 13.4198 0 13.526C0 16.5587 2.44003 19 5.43736 19C8.44975 19 10.8747 16.5435 10.8747 13.526C10.8747 13.4198 10.8747 13.2985 10.8597 13.1924C10.709 16.0583 8.34431 18.3328 5.43736 18.3328Z" fill="#4F4E4D"/>
<path d="M27.5333 8.05176C24.5209 8.05176 22.0959 10.5083 22.0959 13.5258C22.0959 16.5585 24.536 18.9999 27.5333 18.9999C30.5306 18.9999 32.9707 16.5434 32.9707 13.5258C32.9707 10.4931 30.5306 8.05176 27.5333 8.05176ZM27.5333 17.2409C25.4999 17.2409 23.8431 15.5729 23.8431 13.5258C23.8431 11.4787 25.4999 9.81073 27.5333 9.81073C29.5667 9.81073 31.2235 11.4787 31.2235 13.5258C31.2235 15.5729 29.5667 17.2409 27.5333 17.2409Z" fill="#1E1A19"/>
<path d="M27.5332 18.3783C24.6263 18.3783 22.2616 16.0886 22.0959 13.2227C22.0959 13.3288 22.0808 13.4349 22.0808 13.5411C22.0808 16.5738 24.5208 19.0152 27.5182 19.0152C30.5155 19.0152 32.9555 16.5586 32.9555 13.5411C32.9555 13.4349 32.9555 13.3288 32.9405 13.2227C32.7899 16.0886 30.4251 18.3783 27.5332 18.3783Z" fill="#4F4E4D"/>
<path d="M29.2082 13.7919C29.3583 12.8577 28.7276 11.9779 27.7997 11.8269C26.8717 11.6758 25.9978 12.3107 25.8478 13.245C25.6978 14.1792 26.3284 15.059 27.2564 15.21C28.1843 15.361 29.0582 14.7261 29.2082 13.7919Z" fill="#A3A3A3"/>
<path d="M28.4672 13.5256C28.4672 14.0563 28.0454 14.4809 27.5182 14.4809C26.9911 14.4809 26.5693 14.0563 26.5693 13.5256C26.5693 12.9949 26.9911 12.5703 27.5182 12.5703C28.0454 12.5703 28.4672 12.9949 28.4672 13.5256Z" fill="#1B1E23"/>
<path d="M5.43724 15.558C6.55192 15.558 7.45554 14.6483 7.45554 13.5261C7.45554 12.4039 6.55192 11.4941 5.43724 11.4941C4.32257 11.4941 3.41895 12.4039 3.41895 13.5261C3.41895 14.6483 4.32257 15.558 5.43724 15.558Z" fill="#A3A3A3"/>
<path d="M6.22716 14.3227C6.66243 13.8845 6.66243 13.1741 6.22716 12.7359C5.79189 12.2977 5.08618 12.2977 4.65091 12.7359C4.21565 13.1741 4.21565 13.8845 4.65091 14.3227C5.08618 14.7609 5.79189 14.7609 6.22716 14.3227Z" fill="#1B1E23"/>
<path d="M21.2224 12.1163L20.7705 11.3278L22.7738 9.00776L23.8432 8.59835C24.039 8.52253 24.1896 8.37089 24.2649 8.1586L24.5059 7.44591L27.7141 6.67257C27.8346 6.64224 27.9099 6.5361 27.9099 6.41479C27.9099 6.24799 27.7593 6.12668 27.5936 6.157L23.8281 7.05166L16.4478 7.27911L17.0804 7.825H18.6769L19.7313 10.236L19.6258 10.3877C19.2945 10.9032 19.2493 11.5401 19.4903 12.1011L19.8518 12.9351C19.912 13.0716 19.8668 13.2232 19.7614 13.3142L18.9631 13.9208L18.6619 15.24L21.3128 13.3294C21.4182 13.2536 21.5538 13.2081 21.6893 13.2232L28.1208 13.9511C28.3316 13.9814 28.5124 13.8146 28.5124 13.5872V13.4962C28.5124 13.3142 28.3768 13.1626 28.1961 13.1323L21.6441 12.4044C21.4935 12.3892 21.3278 12.2831 21.2224 12.1163ZM19.6108 7.74918L22.9395 7.61271C23.0901 7.61271 23.1804 7.79467 23.075 7.91598L20.8308 10.3422C20.6952 10.4938 20.4392 10.4483 20.3639 10.2663L19.415 8.08278C19.3396 7.91598 19.4451 7.76435 19.6108 7.74918Z" fill="#1E1A19"/>
<path d="M28.2262 13.1465L21.6742 12.4187C21.4784 12.4035 21.3128 12.2822 21.2224 12.1154L20.7705 11.3269L20.6952 11.1449C20.6651 11.0843 20.6802 11.0085 20.7253 10.9478L23.9938 7.27821L27.8948 6.3229C27.8496 6.20159 27.7291 6.12577 27.5936 6.1561L23.8281 7.05075L16.4478 7.27821L16.7641 7.52083L18.8426 7.42984L20.9814 12.5551C21.0416 12.6916 21.1621 12.7978 21.3128 12.8129L28.5274 13.6014V13.4953C28.5425 13.3133 28.4069 13.1617 28.2262 13.1465ZM20.3639 10.2503L19.9722 9.35562L19.3999 8.05155C19.3848 8.02123 19.3848 7.9909 19.3848 7.96057L19.189 7.4905L23.557 7.30854L23.075 7.88475L20.8308 10.3109C20.6952 10.4929 20.4392 10.4474 20.3639 10.2503Z" fill="#1E1A19"/>
<path d="M19.7763 13.3141L19.5654 13.4657L20.68 12.7379L19.7311 10.2207L19.6257 10.3723C19.2943 10.8879 19.2491 11.5248 19.4901 12.0858L19.8516 12.9198C19.942 13.0715 19.8968 13.2231 19.7763 13.3141Z" fill="#1E1A19"/>
<path d="M28.2261 13.1467L21.6741 12.4189C21.4783 12.4037 21.3127 12.2824 21.2223 12.1156L20.9512 11.6455L21.3578 12.4643C21.403 12.5402 21.4633 12.5856 21.5536 12.6008L28.4972 13.3438C28.452 13.2377 28.3466 13.1619 28.2261 13.1467Z" fill="#4F4E4D"/>
<path d="M23.0766 7.90043L20.8324 10.3266C20.7269 10.4328 20.5763 10.4479 20.4558 10.3721L20.5161 10.4176C20.6366 10.5086 20.8022 10.4934 20.8926 10.3873L23.7243 7.32422H23.5586L23.0766 7.90043Z" fill="#4F4E4D"/>
<path d="M20.4558 10.373C20.4393 10.3563 20.4228 10.3896 20.4558 10.373V10.373Z" fill="#4F4E4D"/>
<path d="M7.5158 7.58203L5.03058 13.1471C4.92515 13.3745 5.03058 13.6323 5.25651 13.7233C5.48244 13.8294 5.73849 13.7233 5.82886 13.4958L8.2689 8.00661C8.01284 7.85498 7.75679 7.7185 7.5158 7.58203Z" fill="#666666"/>
<path d="M18.6617 15.5729L19.2492 12.9951C19.3245 12.6918 19.3245 12.3733 19.2793 12.0701C18.9931 10.1898 17.999 8.4763 16.4778 7.32386L16.4326 7.29353L23.8129 7.06608L27.7591 6.12594C27.8043 6.11077 27.8345 6.06528 27.8043 6.01979C27.6688 5.8075 27.247 5.27677 26.253 5.17063C25.0028 5.03416 24.6715 5.3071 24.6715 5.3071C24.6715 5.3071 24.2798 6.24724 22.3067 6.15626C21.4934 6.09561 20.2282 5.88332 19.6558 5.77717C19.4901 5.74685 19.3395 5.86816 19.3395 6.05012C19.3395 6.05012 18.3756 4.73088 15.7096 4.09401C13.4955 3.56329 11.673 4.32147 11.1157 4.60958C10.9952 4.67023 10.8446 4.68539 10.709 4.67023C10.4078 4.60958 9.86556 4.48827 9.35346 4.24565C8.5853 3.88172 8.22381 3.33583 8.22381 3.33583C8.22381 3.33583 8.76604 3.03256 10.3475 3.03256H11.8688C12.396 3.03256 12.8328 2.60798 12.8328 2.06209V1.66784C12.8328 0.651874 11.929 -0.136634 10.9199 0.0301655C9.76013 0.196965 8.28406 0.697364 7.10923 1.91045C4.83487 4.29114 5.6934 6.26241 6.55194 6.9751C7.41047 7.68779 9.2179 8.09721 10.1216 9.99266C10.6638 11.1299 11.5525 13.1315 12.17 14.5569C12.6068 15.5425 13.5708 16.1794 14.6402 16.1794H17.8785C18.2551 16.1946 18.5714 15.9368 18.6617 15.5729Z" fill="#07C5BC"/>
<path d="M19.4298 6.97522C19.4298 6.97522 14.6401 7.12686 12.5917 6.9449C12.0043 6.88424 10.5282 6.64162 10.2119 6.35352L10.0161 6.65679C10.0161 6.65679 11.4169 7.23301 13.3599 7.2785C15.3782 7.32399 16.8392 7.2785 16.8392 7.2785L19.6106 7.18752C19.5804 7.1117 19.4298 6.97522 19.4298 6.97522Z" fill="#06725D"/>
<path d="M26.2681 5.17044C25.1836 5.06429 24.792 5.24626 24.7016 5.29175C24.6866 5.29175 24.6866 5.30691 24.6715 5.32207C24.6113 5.44338 24.1745 6.15607 22.608 6.17124C22.5628 6.17124 22.5327 6.21673 22.5327 6.26222C22.5779 6.39869 22.5779 6.52 22.5628 6.62614C22.5628 6.67163 22.593 6.70196 22.6381 6.70196C23.9034 6.58065 24.2648 5.98927 24.31 5.88313C24.31 5.86796 24.3251 5.86796 24.3402 5.8528C24.4305 5.80731 24.8221 5.62535 25.9066 5.73149C26.5241 5.79215 26.9308 6.03476 27.1718 6.24705C27.1869 6.26222 27.217 6.26222 27.232 6.26222L27.7592 6.14091C27.8044 6.12575 27.8345 6.08025 27.8044 6.03476C27.699 5.80731 27.2622 5.26142 26.2681 5.17044Z" fill="#239FA4"/>
<path d="M9.65462 5.41401C9.79018 5.32303 9.95586 5.23205 10.1366 5.1259C10.3625 5.18655 10.5734 5.23205 10.709 5.26237C10.8445 5.2927 10.9951 5.26237 11.1156 5.20172C11.6729 4.92877 13.5105 4.17059 15.7095 4.70132C18.3755 5.33819 19.3394 6.65743 19.3394 6.65743C19.3394 6.49063 19.4901 6.35415 19.6557 6.38448C19.8365 6.41481 20.0775 6.4603 20.3335 6.50579L20.3486 6.49062C20.5595 6.2935 20.6047 6.1267 20.5293 5.91441C20.1829 5.85375 19.8666 5.80826 19.6407 5.76277C19.475 5.73244 19.3244 5.85375 19.3244 6.03572C19.3244 6.03572 18.3604 4.71648 15.6945 4.07961C13.4954 3.54888 11.6579 4.30707 11.1006 4.58001C10.965 4.64066 10.8295 4.65583 10.6939 4.64066C10.5433 4.61034 10.3475 4.56485 10.1215 4.50419C9.9408 4.61034 9.77512 4.70132 9.63956 4.7923C9.39857 4.9591 9.39857 5.24721 9.50401 5.56564C9.54919 5.50499 9.59438 5.4595 9.65462 5.41401Z" fill="#239FA4"/>
<path d="M23.8281 7.05148L24.5962 6.86952L25.8464 5.14087C24.9426 5.11054 24.6866 5.30767 24.6866 5.30767C24.6866 5.30767 24.295 6.24781 22.3219 6.15683C21.5085 6.09618 20.2433 5.88388 19.671 5.77774C19.5053 5.74741 19.3547 5.86872 19.3547 6.05069C19.3547 6.05069 19.3547 6.05068 19.3396 6.03552V7.21828L23.8281 7.05148Z" fill="#51322B"/>
<path d="M19.6709 6.36912C20.2583 6.47526 21.5235 6.68755 22.3218 6.74821C23.6322 6.80886 24.2497 6.39945 24.5058 6.14166C24.7166 5.92937 24.9878 5.77774 25.289 5.74741C25.3191 5.74741 25.3643 5.74741 25.3944 5.74741L25.8312 5.14087C24.9275 5.11054 24.6715 5.30767 24.6715 5.30767C24.6715 5.30767 24.2798 6.24781 22.3067 6.15683C21.4934 6.09617 20.2282 5.88388 19.6558 5.77774C19.4901 5.74741 19.3395 5.86872 19.3395 6.05068C19.3395 6.05068 19.3395 6.05068 19.3245 6.03552V6.64206C19.3395 6.65723 19.3395 6.65723 19.3395 6.65723C19.3546 6.4601 19.5052 6.33879 19.6709 6.36912Z" fill="#825B52"/>
<path d="M25.8463 5.14087C24.9426 5.11054 24.6865 5.30767 24.6865 5.30767L25.8463 5.14087Z" fill="#825B52"/>
<path d="M19.671 5.91421C20.2584 6.02036 21.5236 6.23265 22.3219 6.2933C24.295 6.38428 24.6866 5.44414 24.6866 5.44414C24.6866 5.44414 24.9276 5.26218 25.7409 5.27734L25.8464 5.14087C24.9426 5.11054 24.6866 5.30767 24.6866 5.30767C24.6866 5.30767 24.295 6.24781 22.3219 6.15683C21.5085 6.09617 20.2433 5.88388 19.671 5.77774C19.5053 5.74741 19.3547 5.86872 19.3547 6.05068C19.3547 6.05068 19.3547 6.05068 19.3396 6.03552V6.18715C19.3547 6.20232 19.3547 6.20232 19.3547 6.20232C19.3547 6.00519 19.5053 5.88388 19.671 5.91421Z" fill="#BF9790"/>
<path d="M10.2272 5.61053C10.3627 4.80686 10.92 4.65523 10.9803 4.64006C10.8899 4.65523 10.7995 4.67039 10.7091 4.64006C10.4079 4.57941 9.86567 4.4581 9.35357 4.21548C8.66072 3.89704 8.29923 3.41181 8.23899 3.32083C8.22392 3.32083 8.20886 3.30566 8.1938 3.30566C7.99799 3.33599 6.9286 3.57861 6.89847 4.51875C6.86835 5.56504 9.27826 6.56584 10.7091 6.86911C10.7091 6.88427 10.0765 6.47486 10.2272 5.61053Z" fill="#015646"/>
<path d="M10.2271 5.61033C10.3626 4.80666 10.9199 4.65503 10.9802 4.63986C10.8898 4.65503 10.7994 4.67019 10.7091 4.63986C10.5735 4.60954 10.3777 4.57921 10.1668 4.51855C9.97104 4.60954 9.65474 4.85215 9.5493 5.44353C9.39868 6.30786 10.0162 6.65662 10.0162 6.65662C9.9861 6.65662 9.95598 6.64146 9.92585 6.64146C10.197 6.71728 10.4681 6.83858 10.7091 6.88408C10.7091 6.88408 10.0765 6.47466 10.2271 5.61033Z" fill="#01352B"/>
<path d="M12.8328 2.04693V1.66784C12.8328 0.651874 11.9291 -0.136634 10.92 0.0301655C9.76021 0.196965 8.28414 0.697365 7.10931 1.91045C6.95869 2.06209 6.82313 2.22889 6.70264 2.38053H12.7726C12.8178 2.27438 12.8328 2.16823 12.8328 2.04693Z" fill="#C3D3D8"/>
<path d="M11.1308 0.652144C11.8388 0.545999 12.5015 0.909925 12.8178 1.48614C12.7274 0.545999 11.8689 -0.136363 10.92 0.015273C9.76021 0.197236 8.28414 0.697635 7.10931 1.91072C6.95869 2.06236 6.82313 2.22916 6.70264 2.38079H7.48586C8.63056 1.27385 10.0163 0.834107 11.1308 0.652144Z" fill="white"/>
<path d="M17.8785 16.1947C18.255 16.1947 18.5713 15.9369 18.6617 15.573L18.722 15.3H14.7004C14.0076 15.3 13.39 14.8906 13.1189 14.2538L10.8747 9.14362C10.709 8.7797 10.4379 8.47642 10.0764 8.29446C9.47393 7.99119 8.40453 7.43014 7.18451 6.74777C6.00968 6.08058 5.70844 5.39821 5.64819 4.97363C5.66326 5.89861 6.10005 6.6113 6.55191 6.97523C7.41044 7.68792 9.21787 8.09733 10.1216 9.99278C10.6638 11.1301 11.5525 13.1316 12.17 14.557C12.6068 15.5427 13.5708 16.1795 14.6402 16.1795H17.8785V16.1947Z" fill="#239FA4"/>
<path d="M19.2793 12.0703C19.0534 10.5084 18.3154 9.06788 17.2159 7.96094H10.9802C11.3417 8.44617 11.9141 8.73428 12.5316 8.73428H15.2277C15.8 8.73428 16.3272 9.05272 16.5983 9.56828L18.9781 14.178L19.2492 12.9953C19.2794 12.8436 19.3095 12.692 19.3095 12.5404C19.3245 12.3736 19.3095 12.2219 19.2793 12.0703Z" fill="#07C5BC"/>
<path d="M6.70264 2.38077C6.76288 2.30496 6.82313 2.22914 6.89844 2.15332C6.82313 2.22914 6.76288 2.30496 6.70264 2.38077Z" fill="#21CCB3"/>
<path d="M6.89844 2.15323C6.97375 2.07742 7.03399 2.0016 7.1093 1.92578C7.03399 1.98644 6.95868 2.07742 6.89844 2.15323Z" fill="#21CCB3"/>
<path d="M5.96451 4.03318C6.37118 4.03318 6.76279 3.85121 7.04897 3.56311C7.22971 3.38114 7.48577 3.15369 7.84725 2.92623C8.58529 2.45616 9.68481 2.39551 10.0764 2.39551H6.70255C6.23562 2.97172 5.94945 3.53278 5.79883 4.04834H5.96451V4.03318Z" fill="#239FA4"/>
<path d="M19.2793 12.0705C18.9932 10.1902 17.9991 8.47671 16.4778 7.32427L16.4326 7.29395H15.6946L11.7183 13.5262C11.8839 13.8901 12.0346 14.2389 12.1701 14.5573C12.6069 15.5429 13.5709 16.1798 14.6403 16.1798H16.4025L19.2342 12.2524C19.2492 12.207 19.2643 12.1311 19.2793 12.0705Z" fill="#B6B7B7"/>
<path d="M14.7003 15.3003C14.0075 15.3003 13.39 14.8909 13.1188 14.254L12.3658 12.5254L11.7332 13.5262C11.7783 13.6172 11.8085 13.7082 11.8536 13.784C11.8838 13.875 11.929 13.9508 11.9591 14.0418C11.9591 14.0569 11.9741 14.0569 11.9741 14.0721C12.0043 14.1479 12.0344 14.2237 12.0796 14.2995C12.1097 14.3905 12.1549 14.4663 12.185 14.5422C12.6218 15.5278 13.5858 16.1647 14.6552 16.1647H16.4174L17.0651 15.27H14.7003V15.3003Z" fill="#848484"/>
<path d="M19.2794 12.0703C19.0535 10.5084 18.3154 9.06788 17.2159 7.96094H15.2729L14.7759 8.73428H15.2277C15.8001 8.73428 16.3273 9.05272 16.5984 9.56828L18.5112 13.2682L19.2342 12.2674C19.2493 12.2068 19.2643 12.1309 19.2794 12.0703Z" fill="#E0E2E2"/>
<path d="M15.1523 7.29395L11.5073 13.041L11.2512 12.4647L14.5347 7.29395H15.1523Z" fill="#B6B7B7"/>
<path d="M14.7306 7.96094H14.113L13.616 8.73428H14.2335L14.7306 7.96094Z" fill="#E0E2E2"/>
<path d="M11.8838 11.4639L11.2512 12.4647C11.3265 12.6466 11.4169 12.8286 11.4922 13.0106L11.5073 13.0257L12.1399 12.0249L11.8838 11.4639Z" fill="#848484"/>
<path d="M7.95273 7.82422L5.48258 13.3741C5.42233 13.5257 5.27171 13.6167 5.12109 13.6319C5.15122 13.6774 5.1964 13.7077 5.25665 13.7229C5.48258 13.829 5.73863 13.7229 5.829 13.4954L8.26904 8.00618C8.1636 7.96069 8.05817 7.88487 7.95273 7.82422Z" fill="#A3A3A3"/>
<path d="M15.318 14.2839C14.2937 14.2839 13.4653 13.45 13.4653 12.4188C13.4653 11.3877 14.2937 10.5537 15.318 10.5537C16.3422 10.5537 17.1706 11.3877 17.1706 12.4188C17.1856 13.4348 16.3422 14.2839 15.318 14.2839ZM15.318 10.8418C14.4594 10.8418 13.7666 11.5393 13.7666 12.4037C13.7666 13.268 14.4594 13.9655 15.318 13.9655C16.1765 13.9655 16.8693 13.268 16.8693 12.4037C16.8844 11.5393 16.1765 10.8418 15.318 10.8418Z" fill="#5B5B5B"/>
<path d="M15.333 12.3888C15.333 12.7527 15.1824 13.0105 14.8811 13.0105C14.5799 13.0105 14.4443 12.7376 14.4443 12.404C14.4443 12.0552 14.595 11.7974 14.8962 11.7974C15.1974 11.7823 15.333 12.0704 15.333 12.3888ZM14.7155 12.404C14.7155 12.6769 14.7757 12.7982 14.8811 12.7982C14.9866 12.7982 15.0468 12.6618 15.0468 12.3888C15.0468 12.131 14.9866 11.9946 14.8811 11.9946C14.7908 11.9946 14.7155 12.131 14.7155 12.404Z" fill="#5B5B5B"/>
<path d="M15.8151 12.0556L15.5891 12.1618L15.5439 11.9495L15.8602 11.7979H16.0862V12.9806H15.8151V12.0556Z" fill="#5B5B5B"/>
<path d="M16.4478 7.29407L16.5532 7.38505L23.8281 7.14244L27.7743 6.20229C27.7141 6.17196 27.6538 6.1568 27.5785 6.17196L23.813 7.06662L16.4478 7.29407Z" fill="#4F4E4D"/>
<path d="M5.67848 13.2378C5.67848 13.344 5.58811 13.435 5.48267 13.435C5.37724 13.435 5.28687 13.344 5.28687 13.2378C5.28687 13.1317 5.37724 13.0407 5.48267 13.0407C5.58811 13.0256 5.67848 13.1165 5.67848 13.2378Z" fill="#515151"/>
<path d="M10.5434 5.64051C10.5283 5.64051 10.5133 5.64051 10.4982 5.62535L9.5493 4.95815C9.51918 4.92783 9.50412 4.88233 9.53424 4.85201C9.56437 4.82168 9.60955 4.80652 9.63968 4.83684L10.5886 5.50404C10.6187 5.53437 10.6338 5.57986 10.6036 5.61019C10.5886 5.64051 10.5585 5.64051 10.5434 5.64051Z" fill="#A3A3A3"/>
<path d="M26.6747 11.4482L26.3885 11.6757L25.8613 11.8273L26.1626 11.615L26.6747 11.4482Z" fill="#6B6B6B"/>
<path d="M25.259 9.17383L24.9728 9.38612L24.4607 9.53776L24.7469 9.32547L25.259 9.17383Z" fill="#6B6B6B"/>
<path d="M25.6354 9.75L25.3191 9.96229L24.7769 10.1139L25.0932 9.90163L25.6354 9.75Z" fill="#6B6B6B"/>
<path d="M24.7318 12.9503C24.6414 12.9351 24.536 12.9503 24.4456 12.9806L18.707 15.3006L18.6467 15.5736C18.5564 15.9375 18.2401 16.1953 17.8635 16.1953H19.3547L24.9878 14.5273C25.0933 14.497 25.1836 14.4363 25.2439 14.3605L25.4548 14.1179C25.515 14.0421 25.5451 13.9511 25.515 13.8601L25.3343 13.1929C25.3041 13.0868 25.2138 13.0109 25.1234 12.9958L24.7318 12.9503Z" fill="#848484"/>
<path d="M19.1888 15.7859L24.9274 13.4658C25.0178 13.4355 25.1081 13.4204 25.2136 13.4355L25.4395 13.4658L25.3642 13.2081C25.3341 13.1019 25.2437 13.0261 25.1533 13.0109L24.7467 12.9503C24.6563 12.9351 24.5508 12.9503 24.4605 12.9806L18.7219 15.3006L18.6616 15.5736C18.5713 15.9375 18.255 16.1953 17.8784 16.1953H18.1495L19.1888 15.7859Z" fill="#B2B2B2"/>
<path d="M25.1385 13.0109L24.7318 12.9503C24.6414 12.9351 24.536 12.9503 24.4456 12.9806L21.6592 14.1027L22.1863 14.2544L24.8523 13.1626C24.9427 13.1322 25.033 13.1171 25.1385 13.1322L25.3494 13.1626C25.3192 13.0868 25.2439 13.0261 25.1385 13.0109Z" fill="#F5F7F7"/>
<path d="M25.3341 9.29507L24.6111 9.82579C24.581 9.85612 24.5358 9.84096 24.5057 9.81063C24.4756 9.7803 24.4906 9.73481 24.5207 9.70448L25.2437 9.17376C25.2738 9.14343 25.319 9.15859 25.3491 9.18892C25.3642 9.23441 25.3642 9.2799 25.3341 9.29507Z" fill="#BCBCBC"/>
<path d="M25.5299 9.58315L24.8069 10.1139C24.7768 10.1442 24.7316 10.129 24.7015 10.0987C24.6714 10.0684 24.6864 10.0229 24.7165 9.99257L25.4395 9.46184C25.4696 9.43152 25.5148 9.44668 25.545 9.47701C25.5751 9.50733 25.56 9.55282 25.5299 9.58315Z" fill="#BCBCBC"/>
<path d="M25.4396 9.46191L25.1384 9.68937L24.5811 9.841L24.8974 9.61355L25.4396 9.46191Z" fill="#6B6B6B"/>
<path d="M25.1234 9.09878L24.4004 9.6295C24.3703 9.65983 24.3251 9.64467 24.295 9.61434C24.2649 9.58401 24.2799 9.53852 24.31 9.5082L25.033 8.97747C25.0631 8.94714 25.1083 8.9623 25.1384 8.99263C25.1686 9.02296 25.1686 9.06845 25.1234 9.09878Z" fill="#BCBCBC"/>
<path d="M25.048 8.97656L24.7317 9.20402L24.1895 9.35565L24.4907 9.1282L25.048 8.97656Z" fill="#6B6B6B"/>
<path d="M25.9818 10.3262L25.6655 10.5385L25.1233 10.7053L25.4396 10.4778L25.9818 10.3262Z" fill="#6B6B6B"/>
<path d="M25.6805 9.88686L24.9575 10.4176C24.9274 10.4479 24.8822 10.4327 24.8521 10.4024C24.822 10.3721 24.8371 10.3266 24.8672 10.2963L25.5901 9.76555C25.6203 9.73523 25.6655 9.75039 25.6956 9.78072C25.7106 9.81104 25.7106 9.85653 25.6805 9.88686Z" fill="#BCBCBC"/>
<path d="M25.8763 10.1593L25.1533 10.69C25.1232 10.7204 25.078 10.7052 25.0479 10.6749C25.0178 10.6446 25.0329 10.5991 25.063 10.5687L25.7859 10.038C25.8161 10.0077 25.8613 10.0229 25.8914 10.0532C25.9215 10.0835 25.9064 10.1442 25.8763 10.1593Z" fill="#BCBCBC"/>
<path d="M25.786 10.0381L25.4848 10.2655L24.9275 10.4172L25.2438 10.1897L25.786 10.0381Z" fill="#6B6B6B"/>
<path d="M26.3734 10.8721L26.0571 11.0995L25.5149 11.2512L25.8161 11.0237L26.3734 10.8721Z" fill="#6B6B6B"/>
<path d="M26.0572 10.4328L25.3343 10.9635C25.3041 10.9938 25.2589 10.9787 25.2288 10.9483C25.1987 10.918 25.2138 10.8725 25.2439 10.8422L25.9669 10.3115C25.997 10.2811 26.0422 10.2963 26.0723 10.3266C26.1024 10.3569 26.1024 10.4024 26.0572 10.4328Z" fill="#BCBCBC"/>
<path d="M26.2679 10.7208L25.545 11.2516C25.5148 11.2819 25.4696 11.2667 25.4395 11.2364C25.4094 11.2061 25.4245 11.1606 25.4546 11.1303L26.1776 10.5995C26.2077 10.5692 26.2529 10.5844 26.283 10.6147C26.2981 10.645 26.2981 10.6905 26.2679 10.7208Z" fill="#BCBCBC"/>
<path d="M26.1776 10.584L25.8613 10.8114L25.3191 10.9631L25.6354 10.7508L26.1776 10.584Z" fill="#6B6B6B"/>
<path d="M26.4037 11.0089L25.6807 11.5397C25.6506 11.57 25.6054 11.5548 25.5753 11.5245C25.5451 11.4942 25.5602 11.4487 25.5903 11.4184L26.3133 10.8876C26.3434 10.8573 26.3886 10.8725 26.4187 10.9028C26.4489 10.9331 26.4489 10.9938 26.4037 11.0089Z" fill="#BCBCBC"/>
<path d="M26.6144 11.297L25.8914 11.8277C25.8613 11.8581 25.8161 11.8429 25.786 11.8126C25.7558 11.7823 25.7709 11.7368 25.801 11.7064L26.524 11.1757C26.5541 11.1454 26.5993 11.1605 26.6294 11.1909C26.6595 11.2212 26.6445 11.2667 26.6144 11.297Z" fill="#BCBCBC"/>
<path d="M26.5241 11.1758L26.2228 11.3881L25.6655 11.5397L25.9818 11.3274L26.5241 11.1758Z" fill="#6B6B6B"/>
<path d="M24.2347 9.29535L24.9276 8.81011C24.9727 8.77979 24.9878 8.70397 24.9577 8.65848L24.7619 8.4007C24.5811 8.17324 24.2648 8.12775 24.0389 8.29455C23.7979 8.47651 23.7527 8.81011 23.9335 9.05273L24.1142 9.28019C24.1293 9.32568 24.1895 9.32568 24.2347 9.29535Z" fill="#1E1A19"/>
<path d="M24.9576 8.65847L24.7618 8.40069C24.5811 8.17324 24.2648 8.12775 24.0389 8.29455C24.0087 8.32488 23.9786 8.3552 23.9485 8.38553C24.1594 8.30971 24.4003 8.38553 24.5359 8.56749L24.7317 8.82527C24.7618 8.87076 24.7618 8.94658 24.7016 8.97691L24.2347 9.31051C24.2347 9.31051 24.2497 9.31051 24.2497 9.29534L24.9426 8.81011C24.9727 8.77978 24.9878 8.70396 24.9576 8.65847Z" fill="#4F4E4D"/>
<path d="M26.5843 11.4937L26.0873 11.8576C26.0421 11.9031 26.027 11.9789 26.0722 12.0244L26.7801 12.6764C26.8554 12.7523 26.9759 12.7523 27.0663 12.6916C27.1416 12.6309 27.1717 12.5248 27.1265 12.4187L26.7199 11.5392C26.7199 11.4785 26.6446 11.4634 26.5843 11.4937Z" fill="#1E1A19"/>
<path d="M27.1416 12.4187L26.7349 11.5392C26.7048 11.4785 26.6295 11.4634 26.5843 11.4937L26.4487 11.5998C26.4939 11.5998 26.5391 11.615 26.5542 11.6605L26.9608 12.54C26.991 12.6006 26.991 12.6764 26.9608 12.7371C27.006 12.7371 27.0512 12.7219 27.0964 12.6916C27.1566 12.6158 27.1868 12.5096 27.1416 12.4187Z" fill="#4F4E4D"/>
<path d="M5.43745 13.5263C5.30189 13.5263 5.1814 13.4202 5.1814 13.2685C5.1814 13.1321 5.28683 13.0107 5.43745 13.0107C5.57301 13.0107 5.6935 13.1169 5.6935 13.2685C5.6935 13.405 5.58807 13.5263 5.43745 13.5263ZM5.43745 13.1775C5.3772 13.1775 5.33202 13.223 5.33202 13.2837C5.33202 13.3443 5.3772 13.3898 5.43745 13.3898C5.4977 13.3898 5.54288 13.3443 5.54288 13.2837C5.54288 13.223 5.4977 13.1775 5.43745 13.1775Z" fill="#BCBCBC"/>
<path d="M8.22388 5.97491C8.47993 6.11138 8.72092 6.23269 8.99204 6.33884L9.91082 4.29175L9.18784 3.92782C9.15772 3.91266 9.11253 3.92782 9.09747 3.95815L8.22388 5.97491Z" fill="#666666"/>
<path d="M9.56441 4.125L8.66069 6.17209C8.63056 6.15692 8.85649 6.26307 9.00711 6.32372L9.9259 4.27664L9.56441 4.125Z" fill="#A3A3A3"/>
<path d="M10.6487 5.21615L8.88647 4.35183L9.06722 3.97274C9.09734 3.92725 9.15759 3.89692 9.20277 3.92725L10.8746 4.73092C10.9951 4.79157 11.0554 4.94321 10.9951 5.06452L10.9801 5.09485C10.9198 5.21615 10.7692 5.27681 10.6487 5.21615Z" fill="#3A3A3A"/>
<path d="M10.8746 4.73092L9.20277 3.92725C9.15759 3.89692 9.08228 3.92725 9.06722 3.97274L8.88647 4.35183L9.03709 4.01823L10.7993 4.86739C10.9048 4.91288 10.95 5.03419 10.9349 5.14033C10.95 5.12517 10.965 5.11001 10.9801 5.07968L10.9951 5.04935C11.0554 4.94321 10.9951 4.79157 10.8746 4.73092Z" fill="#7F7C7C"/>
</g>
<defs>
<clipPath id="clip0">
<rect width="32.9706" height="19" fill="white"/>
</clipPath>
</defs>
</svg>
